<svg width="33" height="33" viewBox="0 0 33 33" fill="none" xmlns="http://www.w3.org/2000/svg">
<path d="M21.744 20.8064C20.4863 19.5695 19.7714 17.8837 19.7565 16.1197L19.732 13.1958L16.8121 13.2204C15.0479 13.235 13.3501 12.5486 12.0919 11.312C10.8342 10.0751 10.1193 8.38927 10.1044 6.62532L10.0798 3.70383L3.31207 3.76071L3.36896 10.5285L6.28406 10.504C7.15764 10.4965 8.02415 10.6612 8.83408 10.9887C9.64401 11.3161 10.3815 11.7999 11.0045 12.4124C11.6274 13.0249 12.1236 13.7541 12.4647 14.5584C12.8058 15.3626 12.9852 16.2262 12.9925 17.0998L13.0171 20.0189L15.9362 19.9944C17.7003 19.9795 19.3981 20.6661 20.656 21.9031C21.914 23.1401 22.629 24.8261 22.6438 26.5902L22.6684 29.5109L29.4362 29.454L29.3793 22.6863L26.4674 22.7108C25.5936 22.7191 24.7267 22.5553 23.9162 22.2285C23.1058 21.9017 22.3676 21.4185 21.744 20.8064Z" fill="#5F5FFA"/>
<path d="M14.1514 25.6224C12.3886 25.6363 10.6923 24.9499 9.43519 23.7139C8.81216 23.1017 8.31589 22.3726 7.97473 21.5685C7.63357 20.7643 7.45423 19.9008 7.44693 19.0273L7.42239 16.1074L0.651428 16.1643L0.708315 22.9321L3.62741 22.9075C5.39136 22.8927 7.08895 23.5792 8.34682 24.8159C9.60442 26.0532 10.3193 27.7392 10.3343 29.5034L10.3588 32.4225L17.1266 32.3656L17.0697 25.5978L14.1514 25.6224Z" fill="#5F5FFA"/>
<path d="M23.8762 9.02805C25.1338 10.2654 25.8487 11.9514 25.8637 13.7155L25.8882 16.6346L32.656 16.5777L32.5991 9.80996L29.68 9.8345C27.9161 9.84929 26.2185 9.16283 24.9606 7.9261C24.3376 7.31382 23.8413 6.58477 23.5001 5.78061C23.159 4.97645 22.9796 4.11295 22.9723 3.23945L22.9478 0.31555L16.18 0.372437L16.2369 7.1402L19.156 7.11566C20.9207 7.10207 22.6186 7.78996 23.8762 9.02805Z" fill="#5F5FFA"/>
</svg>
